<?xml version="1.0" standalone="no"?>
<!DOCTYPE svg PUBLIC "-//W3C//DTD SVG 20010904//EN"
 "http://www.w3.org/TR/2001/REC-SVG-20010904/DTD/svg10.dtd">
<svg version="1.0" xmlns="http://www.w3.org/2000/svg"
 width="300.000000pt" height="169.000000pt" viewBox="0 0 300.000000 169.000000"
 preserveAspectRatio="xMidYMid meet">
<metadata>
Created by potrace 1.10, written by Peter Selinger 2001-2011
</metadata>
<g transform="translate(0.000000,169.000000) scale(0.100000,-0.100000)"
fill="#000000" stroke="none">
<path d="M2713 1679 c9 -6 27 -7 38 -4 14 5 19 3 15 -4 -5 -7 -1 -9 8 -5 31
12 15 24 -31 24 -38 -1 -44 -3 -30 -11z"/>
<path d="M2683 1653 c-14 -5 -18 -33 -5 -33 10 0 32 22 32 32 0 9 -8 9 -27 1z"/>
<path d="M1700 1564 c-8 -1 -36 -6 -62 -9 -39 -5 -48 -10 -48 -26 0 -14 -7
-19 -25 -19 -14 0 -25 -4 -25 -9 0 -5 -8 -12 -17 -14 -17 -4 -17 -5 0 -6 10 0
32 7 50 16 38 20 107 34 107 22 0 -5 8 -9 19 -9 10 0 21 -9 24 -19 5 -22 -4
-25 -153 -41 -141 -16 -195 -22 -196 -24 -1 0 -5 -23 -8 -49 l-7 -48 63 7 c74
8 78 9 78 34 0 16 -6 17 -42 13 -24 -4 -46 -10 -49 -16 -10 -14 -29 1 -29 24
0 13 7 19 23 20 12 0 31 2 42 5 11 2 65 8 120 14 55 6 115 13 133 17 24 4 32
2 32 -10 0 -9 -13 -17 -32 -21 -18 -4 -46 -9 -62 -13 -18 -4 -31 -1 -37 8 -6
10 -9 4 -9 -18 0 -30 3 -33 29 -33 42 0 61 10 61 31 0 14 7 19 25 19 20 0 25
-5 25 -26 0 -14 4 -23 9 -20 5 4 12 -18 14 -46 8 -77 18 -128 26 -128 3 0 6
44 5 98 0 70 -6 114 -21 157 -11 33 -24 75 -28 93 -3 17 -10 31 -13 31 -4 -1
-14 -3 -22 -5z"/>
<path d="M1425 1531 c-45 -5 -50 -9 -53 -33 -3 -23 1 -28 17 -28 12 0 21 5 21
11 0 6 9 9 20 6 11 -3 20 -1 20 4 0 5 11 9 25 9 18 0 25 5 25 20 0 11 -6 19
-12 18 -7 0 -35 -4 -63 -7z"/>
<path d="M1680 1325 c0 -17 4 -23 14 -19 9 4 16 -3 19 -18 3 -14 5 -7 6 17 1
34 -2 41 -19 42 -15 1 -20 -4 -20 -22z"/>
<path d="M1705 1245 c-5 -2 -84 -11 -174 -19 -90 -9 -166 -18 -168 -20 -3 -3
2 -15 11 -28 24 -34 20 -39 -20 -22 -20 8 -37 14 -39 12 -1 -2 -5 -27 -8 -55
-6 -52 -6 -53 21 -53 26 0 27 -1 27 -64 l1 -64 -39 14 c-22 8 -40 14 -42 14
-1 0 -24 -32 -50 -71 -40 -56 -51 -67 -56 -52 -4 10 -3 25 2 34 4 9 10 27 13
40 3 13 8 35 11 49 3 14 6 43 6 65 0 34 4 42 26 53 15 6 33 12 40 12 12 0 30
66 20 77 -3 3 -26 -3 -51 -12 -32 -13 -46 -23 -46 -37 0 -15 4 -17 18 -9 9 5
25 19 35 31 13 15 22 19 29 12 14 -14 0 -52 -20 -54 -32 -2 -37 -4 -53 -13
-10 -7 -20 -38 -29 -90 -6 -44 -16 -82 -20 -85 -4 -3 -9 -21 -11 -41 -3 -32 3
-42 72 -111 54 -54 87 -79 115 -87 56 -16 70 -15 54 4 -7 8 -19 15 -26 15 -8
0 -14 7 -14 15 0 8 -8 15 -19 15 -36 0 -44 25 -22 68 11 22 17 42 14 46 -7 6
-4 7 35 11 19 2 23 -2 19 -16 -5 -20 17 -27 28 -9 4 6 15 6 31 0 31 -12 44
-13 44 -2 0 4 -25 16 -56 27 -60 20 -83 39 -37 30 19 -4 16 -1 -11 10 -21 8
-44 19 -51 25 -8 7 -19 -8 -40 -55 -35 -82 -47 -93 -65 -60 -12 23 -11 29 9
55 12 17 32 45 45 64 l22 33 47 -17 c46 -18 47 -18 47 1 0 10 5 19 10 19 6 0
10 44 10 111 0 62 4 108 9 105 5 -3 88 -6 185 -7 165 0 176 -1 176 -19 0 -11
-10 -22 -26 -27 l-26 -9 22 -19 c16 -15 20 -15 15 -3 -4 9 -2 19 3 22 9 5 22
-69 22 -131 0 -18 5 -33 10 -33 6 0 10 -17 10 -37 1 -45 39 -135 40 -93 0 22
11 31 67 59 52 25 68 29 74 19 5 -7 8 -20 6 -28 -2 -16 -120 -78 -149 -79 -18
-1 -26 -21 -9 -21 5 0 15 -22 22 -48 8 -33 26 -63 55 -95 l44 -46 74 35 c41
19 79 34 85 34 14 0 14 17 1 25 -6 4 -7 11 -4 17 4 6 2 8 -4 4 -13 -8 -75 69
-70 86 3 7 19 -7 36 -31 18 -24 32 -39 32 -33 0 5 -19 34 -43 64 -38 48 -75
123 -65 134 6 5 78 -83 78 -95 0 -6 4 -11 9 -11 5 0 8 8 7 17 0 10 9 20 24 24
l25 7 -27 1 c-16 1 -30 0 -32 -1 -3 -2 -21 13 -41 32 -39 37 -48 52 -116 193
-23 48 -47 87 -53 87 -6 0 -26 -9 -44 -20 -42 -26 -42 -26 -42 10 0 19 -5 30
-14 30 -8 0 -20 16 -27 35 -13 35 -15 37 -34 30z m-2 -40 c15 -6 16 -10 5 -16
-17 -11 -198 -11 -198 0 0 11 73 23 93 15 8 -3 17 -2 20 3 6 10 55 8 80 -2z
m-333 -111 c0 -17 -15 -25 -32 -19 -17 7 -20 37 -4 47 13 8 36 -9 36 -28z
m490 12 c0 -7 7 -19 16 -27 9 -7 14 -22 11 -35 -2 -11 1 -21 7 -20 6 0 13 -3
14 -9 2 -5 8 -16 14 -23 8 -9 3 -15 -21 -23 -21 -8 -29 -15 -23 -21 6 -6 17
-6 30 1 29 15 45 14 39 -3 -4 -10 2 -16 16 -18 17 -3 5 -12 -50 -41 -40 -20
-74 -37 -77 -37 -8 0 -13 51 -5 56 5 3 2 19 -7 35 -12 24 -13 34 -3 45 8 10 8
14 0 14 -6 0 -11 7 -11 15 0 8 -4 15 -10 15 -12 0 -13 40 -2 56 8 12 43 33 55
34 4 0 7 -6 7 -14z m-575 -291 c-14 -32 -28 -55 -31 -53 -2 3 7 31 22 62 14
32 28 55 31 53 2 -3 -7 -31 -22 -62z m704 -8 c-20 -15 -13 -37 11 -37 25 0 33
-27 12 -40 -15 -8 -15 -11 -2 -19 8 -5 18 -7 22 -5 5 3 11 -3 15 -13 4 -10 11
-21 16 -24 11 -8 -76 -49 -103 -49 -13 0 -25 10 -33 28 -6 15 -14 29 -18 32
-3 3 -9 21 -13 41 -6 32 -10 36 -28 31 -38 -10 -9 18 45 43 58 26 104 34 76
12z"/>
<path d="M570 1216 c0 -5 11 -21 25 -38 14 -16 25 -38 25 -48 0 -10 6 -20 14
-23 17 -7 14 -43 -3 -39 -14 3 -15 -15 -1 -23 6 -4 20 -24 31 -47 11 -22 23
-37 26 -34 4 3 0 17 -7 31 -11 20 -11 30 -1 52 7 14 8 29 3 32 -5 3 -11 14
-15 24 -4 10 -11 16 -16 13 -5 -4 -12 7 -16 23 -5 25 -65 96 -65 77z"/>
<path d="M630 1208 c0 -18 87 -101 93 -91 7 11 -3 25 -28 39 -11 6 -22 20 -24
30 -5 29 -41 48 -41 22z"/>
<path d="M425 1170 c19 -21 55 -27 55 -10 0 10 -41 30 -62 30 -6 0 -3 -9 7
-20z"/>
<path d="M2040 1109 c0 -7 -8 -17 -17 -24 -15 -11 -14 -14 8 -28 13 -9 38 -17
54 -19 17 -2 39 -9 50 -15 11 -6 50 -13 87 -15 64 -5 67 -5 73 19 8 32 -1 43
-33 44 -15 0 -43 6 -62 13 -28 10 -37 10 -45 0 -5 -7 -23 -16 -39 -20 -28 -7
-29 -6 -23 25 6 29 5 31 -23 31 -17 0 -30 -5 -30 -11z"/>
<path d="M387 1094 c-11 -11 -8 -44 3 -44 15 0 24 30 13 41 -5 5 -12 6 -16 3z"/>
<path d="M1432 1068 c3 -29 7 -33 36 -36 18 -2 32 1 32 7 0 6 8 11 18 11 13 0
18 7 17 21 -1 18 -9 22 -54 25 l-52 4 3 -32z m69 -2 c-14 -16 -43 -15 -49 2
-2 8 8 12 28 12 27 0 30 -2 21 -14z"/>
<path d="M265 1054 c-33 -14 -84 -35 -112 -46 -53 -21 -63 -31 -42 -43 6 -4 8
-13 5 -21 -8 -20 25 -84 42 -84 10 0 12 -7 8 -25 -4 -14 -2 -25 3 -25 5 0 15
-2 23 -5 7 -3 18 3 25 14 10 16 9 18 -8 14 -11 -3 -19 0 -19 6 0 7 -9 22 -20
34 -25 26 -34 59 -26 90 5 19 22 32 73 54 6 2 21 -5 32 -16 l20 -20 -5 28 c-6
27 -3 30 47 49 30 12 45 21 34 21 -11 0 -47 -11 -80 -25z"/>
<path d="M2528 1067 l-128 -10 0 -33 c0 -18 -5 -34 -10 -36 -14 -4 -24 -198
-10 -198 5 0 10 -6 10 -13 0 -7 9 -18 20 -25 27 -16 25 -32 -2 -32 -15 0 -38
-18 -66 -50 -36 -42 -42 -53 -32 -65 13 -16 35 -21 26 -6 -5 8 20 46 51 78 6
7 19 10 27 7 11 -4 16 -1 16 10 0 10 9 16 23 16 12 0 17 4 11 8 -25 17 -53
100 -58 175 -6 78 -6 78 16 71 21 -6 21 -5 9 10 -21 25 1 46 30 28 12 -8 23
-11 26 -8 3 2 -9 12 -25 20 -17 9 -33 19 -36 24 -2 4 47 8 110 9 62 1 127 4
143 8 22 5 40 0 70 -19 22 -14 44 -26 49 -26 8 0 12 -14 13 -52 0 -10 5 -18
11 -18 6 0 8 -24 4 -70 -6 -64 -5 -70 12 -70 15 0 21 9 26 38 9 56 7 102 -4
102 -5 0 -10 17 -10 38 0 37 -1 37 -78 70 -42 17 -86 31 -97 30 -11 -1 -77 -6
-147 -11z"/>
<path d="M1253 1045 c-12 -14 -18 -27 -13 -30 5 -3 11 1 13 7 4 9 6 8 6 -2 1
-9 -4 -21 -11 -28 -9 -9 -9 -15 -1 -23 9 -9 13 -2 18 27 3 22 8 47 10 57 4 21
4 22 -22 -8z"/>
<path d="M425 1040 c4 -6 8 -29 10 -51 2 -23 11 -46 21 -53 15 -12 13 -16 -22
-41 -57 -42 -64 -51 -20 -26 29 16 42 19 50 11 8 -8 5 -17 -13 -31 -13 -10
-19 -19 -13 -19 5 0 15 6 21 14 14 17 51 9 51 -10 0 -8 -4 -14 -10 -14 -5 0
-10 -5 -10 -12 0 -9 3 -9 12 0 8 8 15 9 25 0 11 -8 12 -7 7 6 -7 19 14 21 38
2 17 -12 21 -56 6 -56 -4 0 -8 -5 -8 -12 0 -6 -7 -20 -17 -30 -32 -36 -2 -17
36 23 22 22 38 46 35 53 -4 12 -90 59 -128 71 -14 4 -17 12 -13 38 2 19 -3 48
-14 72 -10 22 -20 48 -23 58 -3 9 -10 17 -16 17 -6 0 -8 -5 -5 -10z"/>
<path d="M905 1041 c-6 -5 -35 -22 -65 -39 -86 -47 -185 -103 -189 -107 -6 -7
49 -137 70 -167 11 -15 17 -33 14 -39 -4 -6 1 -13 11 -16 11 -3 33 -26 50 -51
29 -45 33 -47 87 -52 72 -7 78 -13 65 -73 -7 -35 -7 -52 1 -60 8 -8 11 -7 11
5 0 9 8 19 18 21 16 4 16 5 0 6 -19 1 -26 21 -8 21 11 0 9 32 -5 63 -9 22 -67
47 -107 47 -17 0 -27 4 -23 10 3 6 -1 10 -9 10 -9 0 -16 6 -16 13 0 6 -22 46
-49 88 -27 42 -51 84 -53 95 -2 10 -9 24 -17 30 -14 11 -6 59 8 49 5 -2 19 7
31 20 13 14 30 25 38 25 8 0 21 8 29 18 13 15 14 15 10 -11 -4 -22 -2 -25 10
-15 8 6 12 17 9 24 -7 17 27 45 60 48 35 4 59 -11 44 -29 -7 -8 0 -15 25 -25
36 -14 47 -30 20 -30 -21 0 -20 -1 28 -52 37 -38 63 -92 58 -120 0 -4 6 -5 14
-2 8 4 15 15 15 26 0 11 4 16 11 13 6 -4 8 -14 5 -22 -4 -8 3 -22 16 -33 19
-15 20 -20 10 -33 -9 -10 -10 -17 -2 -22 6 -3 7 -12 3 -18 -7 -13 28 12 38 27
4 5 13 -2 20 -15 11 -21 11 -23 -3 -11 -14 11 -16 9 -14 -13 0 -14 6 -25 12
-25 5 0 25 -15 43 -34 40 -42 41 -82 1 -79 -22 2 -23 1 -7 -8 9 -6 15 -15 11
-21 -4 -6 2 -6 15 1 11 7 21 18 21 26 0 8 5 15 10 15 15 0 12 26 -5 40 -25 21
-17 32 10 14 14 -9 28 -15 30 -12 3 3 -15 18 -40 33 -25 16 -47 36 -50 44 -3
9 -36 55 -73 103 -37 47 -103 133 -146 190 -98 128 -90 120 -101 109z"/>
<path d="M1553 1023 c26 -2 67 -2 90 0 23 2 2 3 -48 3 -49 0 -68 -1 -42 -3z"/>
<path d="M2978 942 c-10 -2 -18 -8 -18 -13 0 -6 -7 -9 -16 -7 -10 2 -19 -2
-21 -8 -3 -8 8 -10 34 -7 44 6 46 7 41 25 -1 7 -11 12 -20 10z"/>
<path d="M1510 930 l25 -8 -24 -1 c-22 -1 -23 -4 -18 -41 5 -38 -4 -53 -18
-30 -3 6 -14 10 -23 10 -11 -1 -7 -6 12 -17 27 -14 30 -14 42 1 11 15 12 15
18 0 11 -28 7 -35 -18 -28 -18 4 -25 1 -29 -16 -8 -29 21 -39 41 -14 12 16 14
16 9 2 -5 -13 1 -19 26 -23 18 -3 46 -1 62 4 27 8 25 9 -22 10 l-53 1 0 75 c0
60 3 75 15 75 8 0 15 -9 15 -20 0 -11 5 -20 10 -20 6 0 10 11 10 25 0 24 -3
25 -52 24 -42 -1 -48 -3 -28 -9z"/>
<path d="M1668 923 c-14 -4 -17 -19 -20 -89 -3 -90 12 -113 23 -33 3 24 7 34
7 22 1 -13 6 -23 12 -23 9 0 9 115 0 123 -3 2 -13 2 -22 0z"/>
<path d="M2052 898 c3 -7 20 -16 39 -19 19 -4 49 -14 68 -24 29 -15 32 -21 27
-48 -3 -16 -14 -36 -24 -43 -16 -12 -15 -14 7 -30 12 -9 28 -29 35 -45 8 -19
16 -25 25 -20 10 7 7 18 -14 51 -25 40 -28 70 -5 70 5 0 10 10 10 23 0 12 7
35 15 51 19 35 12 45 -15 21 -22 -20 -78 -15 -114 11 -25 17 -59 18 -54 2z"/>
<path d="M1752 837 c-25 -15 -30 -22 -20 -28 8 -6 14 -3 16 6 4 16 22 21 22 6
0 -5 3 -17 6 -26 6 -15 1 -17 -44 -14 -27 2 -48 1 -45 -3 2 -5 11 -8 19 -8 26
0 55 -20 47 -33 -4 -7 -8 -19 -8 -27 0 -12 -14 -15 -63 -16 -91 -2 -90 -14 2
-14 73 0 76 -1 66 -19 -5 -11 -6 -21 -2 -23 5 -2 12 -18 15 -36 7 -33 7 -33
-29 -30 -23 2 -38 -3 -44 -12 -8 -12 -12 -12 -18 -2 -7 10 -11 10 -22 -3 -11
-13 -3 -15 74 -15 95 0 94 -1 71 65 -17 46 -20 175 -5 175 11 0 12 37 2 61 -6
14 -11 13 -40 -4z"/>
<path d="M2645 840 c-4 -6 6 -10 24 -10 16 0 33 5 36 10 4 6 -6 10 -24 10 -16
0 -33 -4 -36 -10z"/>
<path d="M290 827 c0 -5 8 -11 18 -14 9 -2 28 -19 42 -38 14 -18 28 -31 33
-28 4 2 11 -7 17 -21 10 -26 24 -33 34 -18 3 5 -8 19 -25 31 -16 12 -27 26
-24 31 3 5 -6 17 -20 26 -14 9 -24 22 -21 29 3 8 -6 12 -25 11 -16 -1 -29 -5
-29 -9z"/>
<path d="M2722 810 c2 -31 22 -41 32 -15 3 8 15 15 26 15 11 0 20 7 20 15 0
11 -11 15 -40 15 -39 0 -40 -1 -38 -30z"/>
<path d="M2556 815 c-8 -9 -18 -16 -21 -15 -20 1 -25 -2 -25 -15 0 -8 9 -15
20 -15 11 0 20 5 20 10 0 6 11 10 25 10 14 0 25 -4 25 -9 0 -6 8 -9 18 -8 14
1 17 7 14 29 -4 23 -9 28 -32 28 -16 0 -35 -7 -44 -15z"/>
<path d="M2475 780 c-9 -14 4 -52 16 -45 12 8 12 55 0 55 -6 0 -13 -5 -16 -10z"/>
<path d="M2760 763 c-19 -2 -39 -9 -44 -14 -6 -5 -25 -9 -43 -9 -26 0 -33 -4
-33 -20 0 -20 1 -20 27 -3 19 13 28 14 31 5 6 -19 22 -14 22 8 0 15 7 20 26
20 25 0 26 -2 19 -37 -4 -21 -10 -42 -15 -48 -4 -5 -11 -26 -15 -45 -12 -63
-16 -71 -42 -81 -17 -6 -23 -13 -16 -20 6 -6 27 -2 61 12 39 16 52 27 52 42 0
16 -3 18 -12 9 -7 -7 -16 -12 -20 -12 -14 0 -8 64 7 84 8 11 15 32 15 48 0 26
3 28 41 28 33 0 40 3 37 18 -3 18 -34 23 -98 15z"/>
<path d="M985 737 c-31 -19 -81 -67 -70 -67 6 0 32 18 59 40 46 39 52 52 11
27z"/>
<path d="M2537 743 c-15 -2 -25 -9 -22 -14 9 -14 59 -11 91 6 l29 15 -35 -2
c-19 0 -47 -3 -63 -5z"/>
<path d="M1548 718 c3 -11 -1 -24 -9 -29 -11 -7 -9 -9 6 -8 28 1 57 13 56 24
0 6 9 9 19 7 12 -2 20 2 20 11 0 11 -13 15 -49 15 -44 1 -48 -1 -43 -20z"/>
<path d="M665 690 c-3 -5 -1 -10 6 -10 7 0 21 -7 31 -17 26 -23 34 -9 9 16
-23 23 -37 26 -46 11z"/>
<path d="M2480 691 c0 -21 101 -33 108 -13 3 10 -7 13 -40 11 -24 -2 -49 1
-56 5 -7 4 -12 3 -12 -3z"/>
<path d="M88 678 c12 -6 22 -16 22 -22 0 -7 21 -18 46 -25 25 -8 48 -20 51
-27 3 -8 14 -14 24 -14 10 0 19 -4 19 -10 0 -5 7 -10 15 -10 8 0 15 7 15 15 0
9 -9 15 -22 15 -28 0 -58 28 -51 48 5 13 0 14 -29 9 -28 -4 -40 -1 -54 14 -9
10 -27 19 -38 18 -20 0 -20 -1 2 -11z"/>
<path d="M1400 662 c-40 -41 -44 -52 -20 -52 11 0 20 7 20 15 0 8 9 15 20 15
26 0 46 36 24 44 -9 3 -16 6 -17 5 -1 -1 -13 -13 -27 -27z"/>
<path d="M2960 647 c0 -26 4 -47 9 -47 9 0 5 80 -5 89 -2 2 -4 -17 -4 -42z"/>
<path d="M1502 654 c-12 -8 -33 -21 -46 -28 -22 -11 -20 -12 25 -12 27 0 51
-3 55 -7 3 -3 1 -20 -5 -37 -7 -20 -7 -38 -1 -49 6 -12 4 -31 -4 -57 -8 -21
-23 -71 -34 -111 -20 -71 -20 -71 0 -76 11 -3 17 -10 14 -15 -7 -12 3 -42 14
-42 5 0 8 12 8 28 0 15 1 32 3 37 2 6 0 27 -4 47 -7 31 -3 46 22 90 34 60 33
62 55 -86 19 -122 29 -153 40 -118 9 26 24 29 33 6 4 -11 8 -12 13 -4 6 9 13
9 29 1 12 -7 21 -8 21 -2 0 5 23 10 50 9 36 0 53 -5 60 -16 8 -14 9 -14 10 -2
0 11 5 9 18 -7 l17 -23 0 30 0 30 -107 0 c-96 0 -108 2 -109 18 -2 60 -53 303
-57 275 -3 -17 -9 -22 -28 -21 -13 1 -24 6 -24 11 0 5 -7 6 -16 3 -17 -7 -17
11 1 84 4 15 3 20 -2 13 -6 -8 -13 -8 -27 3 -16 11 -17 16 -6 29 16 19 10 19
-18 -1z m124 -181 c8 -28 13 -73 8 -73 -7 0 -34 65 -34 82 0 27 17 22 26 -9z
m20 -121 c1 -15 5 -35 9 -44 4 -10 3 -18 -2 -18 -5 0 -10 6 -11 13 -1 6 -5 30
-8 52 -4 22 -3 36 2 32 4 -4 9 -20 10 -35z"/>
<path d="M625 650 c-3 -5 -1 -10 4 -10 6 0 11 -7 11 -15 0 -8 7 -15 15 -15 8
0 15 -7 15 -15 0 -17 16 -20 25 -6 3 6 -1 13 -8 18 -8 4 -19 18 -26 31 -13 24
-26 28 -36 12z"/>
<path d="M61 629 l-34 -18 28 -7 c18 -5 30 -2 36 7 8 13 13 41 7 38 -2 -1 -18
-10 -37 -20z"/>
<path d="M1280 625 c0 -2 13 -11 29 -19 24 -13 30 -13 34 -2 3 8 3 17 0 20 -7
7 -63 8 -63 1z"/>
<path d="M106 605 c-7 -18 38 -50 55 -39 8 5 7 9 -5 16 -9 5 -21 6 -28 2 -7
-5 -9 0 -6 14 7 25 -7 30 -16 7z"/>
<path d="M1610 602 c0 -7 -12 -12 -27 -12 -25 -1 -26 -2 -10 -14 9 -7 17 -18
17 -25 0 -6 4 -11 9 -11 10 0 24 60 16 68 -3 3 -5 0 -5 -6z"/>
<path d="M2225 600 c-12 -4 -38 -29 -59 -55 l-38 -46 23 -25 c21 -22 24 -23
33 -7 6 12 6 18 -2 21 -25 8 -10 22 28 28 34 6 40 10 35 25 -7 22 10 26 18 5
3 -8 20 -22 37 -31 29 -15 33 -15 69 6 21 11 46 35 56 52 l18 32 -34 -30 c-18
-16 -36 -33 -39 -36 -3 -4 -15 -9 -27 -13 -19 -6 -28 0 -55 38 -17 25 -34 46
-37 45 -3 0 -15 -4 -26 -9z"/>
<path d="M83 563 c16 -4 21 -15 18 -40 -1 -7 8 -17 19 -23 25 -14 25 -6 -1 36
-11 19 -28 33 -37 33 -15 -1 -15 -2 1 -6z"/>
<path d="M1464 525 c-10 -20 -26 -35 -36 -35 -21 0 -23 -13 -5 -28 9 -8 15 -7
23 6 6 9 20 34 33 55 12 20 18 37 13 37 -5 0 -17 -16 -28 -35z"/>
<path d="M2822 537 c15 -12 51 -35 80 -50 52 -28 52 -28 26 -4 -15 14 -25 28
-22 31 2 3 1 4 -2 2 -3 -2 -22 7 -41 20 -47 31 -79 32 -41 1z"/>
<path d="M174 537 c2 -18 46 -60 54 -51 4 3 1 9 -6 11 -10 4 -10 8 0 21 11 13
10 15 -5 9 -11 -4 -20 -1 -23 8 -7 18 -23 20 -20 2z"/>
<path d="M290 546 c0 -7 56 -36 70 -36 7 0 10 6 7 13 -2 6 -11 11 -20 9 -9 -2
-26 2 -37 8 -11 6 -20 8 -20 6z"/>
<path d="M587 511 c5 -30 4 -33 -12 -24 -20 12 -56 5 -67 -11 -6 -8 -10 -8
-15 0 -5 6 -21 11 -38 11 -16 0 -39 3 -50 8 -18 8 -19 7 -5 -9 10 -13 23 -17
47 -13 24 4 36 1 43 -11 8 -11 13 -13 16 -5 4 8 30 10 82 8 42 -3 68 -2 58 1
-24 7 -38 21 -53 54 -11 24 -12 23 -6 -9z"/>
<path d="M1695 494 c10 -11 39 -19 75 -21 56 -5 58 -4 53 16 -5 19 -13 21 -75
21 -64 0 -68 -1 -53 -16z"/>
<path d="M2406 484 c-30 -30 -21 -39 97 -96 10 -5 17 -5 17 2 0 5 -15 16 -32
24 -55 23 -75 43 -60 57 6 7 12 17 12 21 0 13 -17 9 -34 -8z"/>
<path d="M2670 490 c0 -13 69 -121 91 -143 16 -15 24 -16 64 -6 25 6 45 15 45
19 0 4 18 15 40 25 22 10 40 22 40 27 0 12 1 12 -84 -27 -43 -19 -80 -35 -84
-35 -4 0 -27 34 -50 75 -40 68 -62 92 -62 65z"/>
<path d="M2320 475 c0 -8 5 -15 11 -15 5 0 8 -4 5 -9 -4 -5 3 -7 14 -4 25 7
25 7 -5 27 -22 14 -25 15 -25 1z"/>
<path d="M685 460 c28 -12 85 -12 85 0 0 6 -24 10 -52 9 -39 0 -48 -3 -33 -9z"/>
<path d="M250 449 c-20 -8 -22 -12 -10 -19 10 -6 17 -4 23 5 10 19 27 19 27 2
0 -23 39 -52 51 -40 6 6 18 9 25 6 23 -9 16 4 -13 25 -37 25 -72 32 -103 21z"/>
<path d="M426 439 c-16 -16 -17 -19 -4 -19 9 0 19 -7 22 -16 4 -9 13 -14 21
-10 9 3 23 2 33 -3 31 -17 57 -24 87 -25 19 -1 33 -8 40 -23 11 -21 12 -21 23
-3 14 23 13 24 -68 44 -100 25 -140 38 -140 48 0 4 5 8 10 8 6 0 10 5 10 10 0
15 -13 11 -34 -11z"/>
<path d="M530 429 c0 -7 52 -16 105 -18 21 -1 26 2 18 10 -12 12 -123 19 -123
8z"/>
<path d="M1390 431 c0 -6 5 -13 11 -16 12 -8 8 -57 -6 -67 -6 -4 -1 -16 13
-28 l22 -21 0 71 c0 63 -2 70 -20 70 -11 0 -20 -4 -20 -9z"/>
<path d="M970 407 c0 -8 -11 -19 -25 -25 -26 -12 -32 -27 -15 -37 6 -4 20 5
31 19 11 14 27 26 36 26 13 0 13 3 3 15 -15 19 -30 19 -30 2z"/>
<path d="M2388 403 c-17 -21 -31 -43 -26 -43 12 0 67 48 61 53 -10 11 -19 8
-35 -10z"/>
<path d="M206 374 c-20 -19 -20 -38 -1 -54 16 -13 17 -12 19 37 1 38 2 38 -18
17z"/>
<path d="M843 355 c10 -7 28 -10 42 -7 34 6 24 14 -21 17 -32 2 -35 0 -21 -10z"/>
<path d="M675 340 c-4 -7 -2 -17 5 -23 10 -9 14 -9 17 0 3 8 10 9 21 3 42 -22
82 -38 82 -32 -1 16 -18 29 -55 41 -22 7 -45 14 -52 17 -6 3 -14 0 -18 -6z"/>
<path d="M266 289 c-15 -31 -15 -31 7 -16 12 7 39 17 60 21 20 4 37 11 37 16
0 5 -13 5 -30 0 -18 -5 -32 -5 -35 1 -11 16 -23 9 -39 -22z"/>
<path d="M815 300 c-4 -6 5 -10 19 -10 14 0 26 -4 26 -10 0 -5 14 -16 30 -25
18 -9 30 -11 30 -5 0 6 -11 15 -25 20 -14 5 -28 17 -31 25 -7 17 -40 20 -49 5z"/>
<path d="M1016 284 c-9 -23 -8 -24 12 -24 9 0 35 -9 56 -21 54 -29 86 -40 86
-30 0 9 -78 45 -123 56 -22 6 -25 10 -16 21 7 9 8 14 1 14 -5 0 -13 -7 -16
-16z"/>
<path d="M530 227 c0 -24 2 -25 30 -16 31 11 41 29 16 29 -8 0 -21 3 -30 6
-12 5 -16 0 -16 -19z"/>
<path d="M1070 176 c0 -19 51 -56 76 -55 l29 1 -29 8 c-16 5 -37 18 -48 29
-18 20 -28 26 -28 17z"/>
<path d="M185 152 c-3 -8 -4 -17 -2 -19 8 -7 37 9 37 21 0 18 -28 16 -35 -2z"/>
<path d="M840 147 c0 -7 9 -18 20 -25 16 -10 20 -10 20 1 0 14 -20 37 -32 37
-4 0 -8 -6 -8 -13z"/>
<path d="M317 63 c-9 -2 -15 -9 -12 -14 4 -5 -2 -9 -11 -9 -13 0 -15 -3 -7
-11 13 -13 29 -5 43 22 6 10 9 18 8 18 -2 -1 -11 -3 -21 -6z"/>
</g>
</svg>
